<svg width="105" height="47" viewBox="0 0 105 47" fill="none" xmlns="http://www.w3.org/2000/svg">
<path d="M16.5103 36.4832C14.6098 36.4832 12.9509 36.0805 11.5335 35.2752C10.1162 34.4377 9.0049 33.3103 8.19961 31.893V46.2917H0.46875V10.6331H7.18493V14.7401C8.11908 13.2906 9.29481 12.1632 10.7121 11.3579C12.1295 10.5526 13.7884 10.1499 15.6889 10.1499C17.3961 10.1499 18.9584 10.4882 20.3757 11.1646C21.8252 11.8411 23.0815 12.7752 24.1445 13.9671C25.2075 15.1589 26.0289 16.544 26.6087 18.1224C27.1885 19.7008 27.4784 21.408 27.4784 23.2441C27.4784 25.7566 27.0114 28.0114 26.0772 30.0086C25.1431 32.0057 23.8385 33.5841 22.1635 34.7437C20.5207 35.9034 18.6363 36.4832 16.5103 36.4832ZM13.9011 29.9603C14.7386 29.9603 15.4956 29.7831 16.1721 29.4288C16.8807 29.0422 17.4927 28.5429 18.0081 27.9309C18.5235 27.3189 18.9101 26.6102 19.1678 25.8049C19.4577 24.9674 19.6026 24.0977 19.6026 23.1958C19.6026 22.2616 19.4416 21.408 19.1194 20.6349C18.8295 19.8618 18.4108 19.1854 17.8632 18.6056C17.3156 17.9935 16.6713 17.5265 15.9305 17.2044C15.1896 16.8822 14.3843 16.7212 13.5146 16.7212C12.9992 16.7212 12.4677 16.8017 11.9201 16.9628C11.4047 17.1238 10.9054 17.3654 10.4222 17.6875C9.97126 17.9774 9.55251 18.3318 9.16596 18.7505C8.77942 19.1693 8.4573 19.6525 8.19961 20.2001V25.4184C8.55394 26.2881 9.02101 27.0612 9.60082 27.7376C10.1806 28.4141 10.841 28.9617 11.5819 29.3805C12.3227 29.767 13.0958 29.9603 13.9011 29.9603ZM43.4546 36.4832C41.2965 36.4832 39.3637 36.1288 37.6565 35.4202C35.9815 34.7115 34.5642 33.7452 33.4045 32.5211C32.2449 31.2971 31.3591 29.8958 30.7471 28.3175C30.1672 26.7391 29.8773 25.0802 29.8773 23.3407C29.8773 21.5691 30.1672 19.8941 30.7471 18.3157C31.3591 16.7373 32.2449 15.3361 33.4045 14.112C34.5642 12.888 35.9815 11.9216 37.6565 11.2129C39.3637 10.5043 41.2965 10.1499 43.4546 10.1499C45.6128 10.1499 47.5295 10.5043 49.2045 11.2129C50.8795 11.9216 52.2968 12.888 53.4564 14.112C54.6161 15.3361 55.5019 16.7373 56.1139 18.3157C56.726 19.8941 57.032 21.5691 57.032 23.3407C57.032 25.0802 56.726 26.7391 56.1139 28.3175C55.5019 29.8958 54.6161 31.2971 53.4564 32.5211C52.2968 33.7452 50.8795 34.7115 49.2045 35.4202C47.5295 36.1288 45.6128 36.4832 43.4546 36.4832ZM37.8015 23.3407C37.8015 24.6614 38.043 25.821 38.5262 26.8196C39.0416 27.8182 39.7181 28.5913 40.5556 29.1389C41.3931 29.6865 42.3594 29.9603 43.4546 29.9603C44.5176 29.9603 45.4679 29.6865 46.3054 29.1389C47.1751 28.5591 47.8516 27.7699 48.3348 26.7713C48.8179 25.7727 49.0595 24.6292 49.0595 23.3407C49.0595 22.02 48.8179 20.8604 48.3348 19.8618C47.8516 18.8633 47.1751 18.0902 46.3054 17.5426C45.4679 16.995 44.5176 16.7212 43.4546 16.7212C42.3594 16.7212 41.3931 16.995 40.5556 17.5426C39.7181 18.0902 39.0416 18.8633 38.5262 19.8618C38.043 20.8604 37.8015 22.02 37.8015 23.3407ZM72.9455 36.4832C70.7873 36.4832 68.8546 36.1288 67.1474 35.4202C65.4724 34.7115 64.055 33.7452 62.8954 32.5211C61.7358 31.2971 60.85 29.8958 60.2379 28.3175C59.6581 26.7391 59.3682 25.0802 59.3682 23.3407C59.3682 21.5691 59.6581 19.8941 60.2379 18.3157C60.85 16.7373 61.7358 15.3361 62.8954 14.112C64.055 12.888 65.4724 11.9216 67.1474 11.2129C68.8546 10.5043 70.7873 10.1499 72.9455 10.1499C75.1037 10.1499 77.0203 10.5043 78.6953 11.2129C80.3704 11.9216 81.7877 12.888 82.9473 14.112C84.1069 15.3361 84.9928 16.7373 85.6048 18.3157C86.2168 19.8941 86.5228 21.5691 86.5228 23.3407C86.5228 25.0802 86.2168 26.7391 85.6048 28.3175C84.9928 29.8958 84.1069 31.2971 82.9473 32.5211C81.7877 33.7452 80.3704 34.7115 78.6953 35.4202C77.0203 36.1288 75.1037 36.4832 72.9455 36.4832ZM67.2923 23.3407C67.2923 24.6614 67.5339 25.821 68.0171 26.8196C68.5325 27.8182 69.2089 28.5913 70.0464 29.1389C70.884 29.6865 71.8503 29.9603 72.9455 29.9603C74.0085 29.9603 74.9588 29.6865 75.7963 29.1389C76.666 28.5591 77.3424 27.7699 77.8256 26.7713C78.3088 25.7727 78.5504 24.6292 78.5504 23.3407C78.5504 22.02 78.3088 20.8604 77.8256 19.8618C77.3424 18.8633 76.666 18.0902 75.7963 17.5426C74.9588 16.995 74.0085 16.7212 72.9455 16.7212C71.8503 16.7212 70.884 16.995 70.0464 17.5426C69.2089 18.0902 68.5325 18.8633 68.0171 19.8618C67.5339 20.8604 67.2923 22.02 67.2923 23.3407ZM90.2603 0.72797H97.9911V26.9646C97.9911 28.0276 98.1844 28.7845 98.571 29.2355C98.9575 29.6865 99.5051 29.912 100.214 29.912C100.697 29.912 101.18 29.8475 101.663 29.7187C102.179 29.5576 102.63 29.3805 103.016 29.1872L104.031 34.9853C103.065 35.4363 101.953 35.7906 100.697 36.0483C99.4407 36.306 98.265 36.4349 97.1697 36.4349C94.9793 36.4349 93.2721 35.855 92.0481 34.6954C90.8562 33.5036 90.2603 31.8286 90.2603 29.6704V0.72797Z" fill="black"/>
</svg>
