<svg width="104" height="47" viewBox="0 0 104 47" fill="none" xmlns="http://www.w3.org/2000/svg">
<path d="M16.1626 36.4832C14.2621 36.4832 12.6032 36.0805 11.1859 35.2752C9.76856 34.4377 8.65725 33.3103 7.85195 31.893V46.2917H0.121093V10.6331H6.83727V14.7401C7.77142 13.2906 8.94715 12.1632 10.3645 11.3579C11.7818 10.5526 13.4407 10.1499 15.3412 10.1499C17.0484 10.1499 18.6107 10.4882 20.028 11.1646C21.4776 11.8411 22.7338 12.7752 23.7968 13.9671C24.8598 15.1589 25.6812 16.544 26.261 18.1224C26.8409 19.7008 27.1308 21.408 27.1308 23.2441C27.1308 25.7566 26.6637 28.0114 25.7296 30.0086C24.7954 32.0057 23.4908 33.5841 21.8158 34.7437C20.173 35.9034 18.2886 36.4832 16.1626 36.4832ZM13.5535 29.9603C14.391 29.9603 15.1479 29.7831 15.8244 29.4288C16.5331 29.0422 17.1451 28.5429 17.6605 27.9309C18.1759 27.3189 18.5624 26.6102 18.8201 25.8049C19.11 24.9674 19.255 24.0977 19.255 23.1958C19.255 22.2616 19.0939 21.408 18.7718 20.6349C18.4819 19.8618 18.0631 19.1854 17.5155 18.6056C16.9679 17.9935 16.3237 17.5265 15.5828 17.2044C14.8419 16.8822 14.0366 16.7212 13.1669 16.7212C12.6515 16.7212 12.12 16.8017 11.5724 16.9628C11.057 17.1238 10.5577 17.3654 10.0746 17.6875C9.6236 17.9774 9.20485 18.3318 8.81831 18.7505C8.43176 19.1693 8.10964 19.6525 7.85195 20.2001V25.4184C8.20628 26.2881 8.67335 27.0612 9.25317 27.7376C9.83298 28.4141 10.4933 28.9617 11.2342 29.3805C11.9751 29.767 12.7482 29.9603 13.5535 29.9603ZM43.107 36.4832C40.9488 36.4832 39.0161 36.1288 37.3089 35.4202C35.6338 34.7115 34.2165 33.7452 33.0569 32.5211C31.8973 31.2971 31.0114 29.8958 30.3994 28.3175C29.8196 26.7391 29.5297 25.0802 29.5297 23.3407C29.5297 21.5691 29.8196 19.8941 30.3994 18.3157C31.0114 16.7373 31.8973 15.3361 33.0569 14.112C34.2165 12.888 35.6338 11.9216 37.3089 11.2129C39.0161 10.5043 40.9488 10.1499 43.107 10.1499C45.2652 10.1499 47.1818 10.5043 48.8568 11.2129C50.5318 11.9216 51.9492 12.888 53.1088 14.112C54.2684 15.3361 55.1542 16.7373 55.7663 18.3157C56.3783 19.8941 56.6843 21.5691 56.6843 23.3407C56.6843 25.0802 56.3783 26.7391 55.7663 28.3175C55.1542 29.8958 54.2684 31.2971 53.1088 32.5211C51.9492 33.7452 50.5318 34.7115 48.8568 35.4202C47.1818 36.1288 45.2652 36.4832 43.107 36.4832ZM37.4538 23.3407C37.4538 24.6614 37.6954 25.821 38.1786 26.8196C38.694 27.8182 39.3704 28.5913 40.2079 29.1389C41.0454 29.6865 42.0118 29.9603 43.107 29.9603C44.17 29.9603 45.1202 29.6865 45.9577 29.1389C46.8275 28.5591 47.5039 27.7699 47.9871 26.7713C48.4703 25.7727 48.7119 24.6292 48.7119 23.3407C48.7119 22.02 48.4703 20.8604 47.9871 19.8618C47.5039 18.8633 46.8275 18.0902 45.9577 17.5426C45.1202 16.995 44.17 16.7212 43.107 16.7212C42.0118 16.7212 41.0454 16.995 40.2079 17.5426C39.3704 18.0902 38.694 18.8633 38.1786 19.8618C37.6954 20.8604 37.4538 22.02 37.4538 23.3407ZM72.5979 36.4832C70.4397 36.4832 68.507 36.1288 66.7997 35.4202C65.1247 34.7115 63.7074 33.7452 62.5478 32.5211C61.3881 31.2971 60.5023 29.8958 59.8903 28.3175C59.3105 26.7391 59.0205 25.0802 59.0205 23.3407C59.0205 21.5691 59.3105 19.8941 59.8903 18.3157C60.5023 16.7373 61.3881 15.3361 62.5478 14.112C63.7074 12.888 65.1247 11.9216 66.7997 11.2129C68.507 10.5043 70.4397 10.1499 72.5979 10.1499C74.7561 10.1499 76.6727 10.5043 78.3477 11.2129C80.0227 11.9216 81.44 12.888 82.5997 14.112C83.7593 15.3361 84.6451 16.7373 85.2571 18.3157C85.8692 19.8941 86.1752 21.5691 86.1752 23.3407C86.1752 25.0802 85.8692 26.7391 85.2571 28.3175C84.6451 29.8958 83.7593 31.2971 82.5997 32.5211C81.44 33.7452 80.0227 34.7115 78.3477 35.4202C76.6727 36.1288 74.7561 36.4832 72.5979 36.4832ZM66.9447 23.3407C66.9447 24.6614 67.1863 25.821 67.6694 26.8196C68.1848 27.8182 68.8613 28.5913 69.6988 29.1389C70.5363 29.6865 71.5027 29.9603 72.5979 29.9603C73.6609 29.9603 74.6111 29.6865 75.4486 29.1389C76.3183 28.5591 76.9948 27.7699 77.478 26.7713C77.9611 25.7727 78.2027 24.6292 78.2027 23.3407C78.2027 22.02 77.9611 20.8604 77.478 19.8618C76.9948 18.8633 76.3183 18.0902 75.4486 17.5426C74.6111 16.995 73.6609 16.7212 72.5979 16.7212C71.5027 16.7212 70.5363 16.995 69.6988 17.5426C68.8613 18.0902 68.1848 18.8633 67.6694 19.8618C67.1863 20.8604 66.9447 22.02 66.9447 23.3407ZM89.9126 0.72797H97.6435V26.9646C97.6435 28.0276 97.8368 28.7845 98.2233 29.2355C98.6099 29.6865 99.1575 29.912 99.8661 29.912C100.349 29.912 100.832 29.8475 101.316 29.7187C101.831 29.5576 102.282 29.3805 102.669 29.1872L103.683 34.9853C102.717 35.4363 101.606 35.7906 100.349 36.0483C99.093 36.306 97.9173 36.4349 96.8221 36.4349C94.6317 36.4349 92.9245 35.855 91.7004 34.6954C90.5086 33.5036 89.9126 31.8286 89.9126 29.6704V0.72797Z" fill="white"/>
</svg>
