<svg width="14" height="14" viewBox="0 0 14 14" fill="none" xmlns="http://www.w3.org/2000/svg">
<path d="M13.64 12.6111L9.83138 8.80249C10.6627 7.70969 11.0479 6.34193 10.909 4.9759C10.7702 3.60988 10.1176 2.3476 9.08344 1.44443C8.04924 0.541265 6.71058 0.0646448 5.3383 0.111C3.96602 0.157356 2.66258 0.723225 1.69168 1.69413C0.720784 2.66503 0.154914 3.96847 0.108559 5.34074C0.0622034 6.71302 0.538823 8.05168 1.44199 9.08588C2.34516 10.1201 3.60744 10.7726 4.97346 10.9115C6.33948 11.0503 7.70725 10.6651 8.80005 9.83382L12.6086 13.6424C12.7466 13.7769 12.9316 13.8523 13.1243 13.8523C13.317 13.8523 13.502 13.7769 13.64 13.6424C13.7766 13.5056 13.8534 13.3201 13.8534 13.1267C13.8534 12.9334 13.7766 12.7479 13.64 12.6111ZM1.60346 5.54166C1.60346 4.76289 1.8344 4.00162 2.26705 3.3541C2.69971 2.70658 3.31466 2.2019 4.03415 1.90388C4.75363 1.60586 5.54533 1.52788 6.30913 1.67981C7.07293 1.83174 7.77453 2.20675 8.3252 2.75742C8.87587 3.30809 9.25088 4.00969 9.40281 4.77349C9.55474 5.53729 9.47676 6.32899 9.17874 7.04847C8.88072 7.76796 8.37604 8.38291 7.72852 8.81557C7.081 9.24823 6.31973 9.47916 5.54097 9.47916C4.49705 9.47792 3.49625 9.06268 2.7581 8.32453C2.01994 7.58637 1.6047 6.58557 1.60346 5.54166Z" fill="black"/>
</svg>
